<svg width="1854" height="1546" xmlns="http://www.w3.org/2000/svg">
 <metadata id="metadata24111">image/svg+xmlBlank World Map</metadata>
 <defs>
  <marker id="Arrow1Mend" refX="0" refY="0" orient="auto">
   <path fill-rule="evenodd" stroke="#000000" stroke-width="1.0pt" marker-start="none" transform="rotate(180 -2.5,0) scale(0.4000000059604645) translate(10,0) " d="m0,0l5,-5l-17.5,5l17.5,5l-5,-5z" id="path8224"/>
  </marker>
 </defs>
 <style type="text/css">/*
 * Below are Cascading Style Sheet (CSS) definitions in use in this file,
 * which allow easily changing how countries are displayed.
 *
 */

/*
 * Circles around small countries
 *
 * Change opacity to 1 to display all circles.
 *
 */
.circle
{
   opacity:0;
   fill:#b9b9b9;
   fill-opacity:1;
   stroke:black;
   stroke-width:0.5;
   stroke-miterlimit:3.97446823;
   stroke-dasharray:none;
   stroke-opacity:1;
}

/*
 * Land
 */
.land
{
   fill: #b9b9b9;
   fill-opacity: 1;
   stroke:white;
   stroke-opacity: 1;
   stroke-width:0.5;
   stroke-miterlimit: 3.97446823;
   stroke-dasharray: none;
}

/*
 * Styles for coastlines of islands with no borders
 */
.coast
{
   stroke-width: 0.3;
}

/*
 * Additional style rules
 *
 * The following are examples of colouring countries.  You can substitute these with your own styles to colour the countries on the map.
 *
 * Color a few countries:
 *
 * .gb, .au, .nc
 * {
 *    fill:       #ff0000;
 * }
 *
 * Color a few small country circles (and the countries):
 *
 * .ms, .ky
 * {
 *    opacity:    1;
 *    fill:       #ff0000;
 * }
 *
 */

/*
 * Sea
 */

.ocean
{
   opacity: 1;
   color: #000000;
   fill:white;
   fill-opacity:1;
   fill-rule:nonzero;
   stroke:none;
   visibility:visible;
   display:inline;
   overflow:visible;
}

.lake
{
   fill:white;
   fill-opacity:1;
   stroke:white;
   stroke-opacity: 1;
   stroke-width:0.3;
   stroke-miterlimit: 3.97446823;
   stroke-dasharray: none;
}</style>
 <g>
  <title>background</title>
  <rect fill="none" id="canvas_background" height="1548" width="1856" y="-1" x="-1"/>
 </g>
 <g>
  <title>Layer 1</title>
  <g transform="matrix(9.6664741,0,0,8.5400129,-14277.631,-4491.4718) " fill="#b9b9b9" stroke="#ffffff" stroke-width="0.3" stroke-miterlimit="3.974468" id="ye" class="land coast ye">
   <path id="path2190" d="m1544.6054,691.638396c0.096,-0.331 0.118,-0.667 0.069,-1.008c-1.102,0.177 -0.653,0.617 -0.069,1.008"/>
   <path id="path2192" d="m1617.6854,706.902396c-0.042,-0.778 -1.002,-0.504 -1.439,-0.432c0.479,0.144 0.959,0.288 1.439,0.432"/>
   <path id="path2194" d="m1628.3354,705.462396c1.685,-0.387 4.609,-0.202 5.471,-2.088c-1.012,-0.607 -2.35,-1.537 -3.598,-1.256c-0.591,0.134 -1.101,0.521 -1.734,0.46c-0.67,-0.063 -1.245,-0.648 -1.941,-0.522c-0.76,0.137 -1.436,1.617 -0.808,2.171c0.655,0.581 1.737,1.11 2.61,1.235"/>
   <path fill="#b9b9b9" stroke="#ffffff" stroke-width="0.5" stroke-miterlimit="3.974468" id="path2592" d="m1622.0754,667.629396c-2.426,-0.09 -1.324,-5.106 -3.73,-5.389c1.355,-1.823 -2.883,-7.088 -3.566,-8.864c-0.654,-1.699 -1.043,-3.915 -2.402,-5.227c-1.445,-1.393 -6.685,0.319 -8.53,0.564c-3.532,0.47 -7.066,0.928 -10.602,1.379c-3.288,0.42 -5.446,1.53 -8.187,3.352c-2.16,1.437 -2.871,3.095 -4.282,5.203c-1.221,1.824 -1.874,6.43 -4.801,6.253c-1.992,-0.12 -1.775,-3.107 -3.691,-2.881c-2.415,0.285 -4.391,0.24 -6.839,-0.104c-1.389,-0.195 -2.813,-1.184 -4.174,-1.184c-1.507,0 -3.008,0.145 -4.506,0.287c-1.839,0.174 -3.392,1 -5.298,0.895c-1.048,-0.058 -1.437,-1.224 -2.508,-1.357c-1.024,-0.128 -1.812,0.563 -2.241,1.429c-0.469,0.945 -0.619,2.091 -0.442,3.129c0.114,0.672 1.056,1.339 0.544,2.028c-0.484,0.653 -0.868,1.324 -1.366,2.004c-0.266,0.372 -0.601,0.665 -1.004,0.88c-0.96,0.48 -0.471,0.845 -0.273,1.898c0.312,1.668 -0.316,2.441 -0.613,3.961c-0.275,1.407 0.906,2.63 0.772,4.029c-0.267,-0.24 -1.701,-0.277 -1.462,0.282c-0.051,-0.117 1.447,0.726 1.444,0.722c0.802,0.856 1.102,1.742 1.375,2.862c0.538,2.196 0.58,4.644 1.27,6.78c0.283,0.877 0.987,1.533 1.321,2.388c0.401,1.031 0.022,2.149 0.002,3.204c-0.041,2.087 2.483,3.843 1.8,5.963c0.921,0.071 1.542,-0.446 2.474,-0.074c0.992,0.396 1.674,0.723 2.767,0.506c2.255,-0.447 3.258,-2.023 5.609,-0.79c-0.121,-0.64 0.561,-1.29 0.791,-0.359c0.389,-0.428 0.615,-0.925 0.929,-1.401c0.496,-0.753 1.301,-0.736 1.965,-1.238c1.48,-1.118 1.648,-2.245 3.686,-2.713c1.901,-0.437 3.916,-0.52 5.855,-0.342c1.142,0.104 3.057,-1.206 4.201,-1.53c1.707,-0.483 2.552,-1.96 4.054,-2.792c0.461,-0.255 1.111,-0.832 1.61,-0.981c0.551,0.018 1.076,0.149 1.576,0.391c0.564,0.027 1.116,-0.041 1.654,-0.203c3.628,-0.584 4.444,-4.338 7.705,-5.939c1.515,-0.744 2.853,-0.932 4.472,-1.215c1.995,-0.348 3.649,-1.686 5.612,-2.154c1.365,-0.326 2.748,-0.583 4.072,-1.061c1.323,-0.478 1.793,-1.532 2.911,-2.103c0.928,-0.474 2.93,-0.415 3.215,-1.675c0.331,-1.46 -0.683,-2.788 -0.153,-4.277c1.068,-3.009 4.742,-2.89 6.984,-4.536" class="land ye"/>
  </g>
  <g transform="matrix(9.6664741,0,0,8.5400129,-14277.631,-4491.4718) " fill="#b9b9b9" stroke="#ffffff" stroke-width="0.3" stroke-miterlimit="3.974468" id="ae" class="land coast ae">
   <path id="path2704" d="m1622.4354,603.222396c0.5,0.033 0.883,-0.159 1.15,-0.576c-0.653,-0.54 -1.479,-0.413 -1.87,0.36c0.24,0.073 0.479,0.144 0.72,0.216"/>
   <path fill="#b9b9b9" stroke="#ffffff" stroke-width="0.5" stroke-miterlimit="3.974468" id="path2784" d="m1605.8064,601.926396c0.489,-0.323 0.68,-0.131 0.569,0.576c0.234,-0.222 0.475,-0.438 0.72,-0.648c0.467,0.682 0.053,1.668 0.58,2.304c0.51,0.615 1.69,0.473 2.381,0.433c0.898,-0.053 1.655,-0.195 2.346,-0.816c0.314,-0.282 0.677,-1.107 1.104,-1.2c0.463,-0.103 1.617,0.594 2.186,0.606c0.933,0.021 1.862,0.129 2.794,0.096c2.533,-0.09 4.28,1.076 6.761,-0.414c-0.225,-0.347 -0.465,-0.683 -0.72,-1.008c0.781,-0.295 0.673,0.645 1.29,0.576c0.898,-0.1 1.66,-1.183 2.026,-1.901c0.996,-1.958 1.123,-3.073 2.866,-4.528c1.697,-1.417 2.389,-3.972 3.993,-5.295c1.776,-1.464 2.842,-1.855 3.354,-4.26c1.294,0.066 0.736,1.938 0.746,2.728c0.018,1.494 1.641,0.737 1.835,2.397c0.194,1.665 0.897,3.245 0.021,4.86c-1.187,2.189 -1.475,1.239 -2.196,-0.129c-0.845,-1.6 -1.438,0.996 -1.307,1.713c0.099,0.538 0.281,0.65 -0.063,1.121c-0.451,0.618 0.465,1.505 0.317,2.215c-0.237,1.137 2,1.1 1.229,2.227c-0.705,1.033 -2.578,0.4 -3.395,1.373c1.237,0.726 0.244,2.741 -0.141,3.673c-0.72,1.742 -1.255,3.418 -1.132,5.314c0.128,1.978 -0.881,2.43 -2.604,2.026c-2.12,-0.497 -4.312,-0.697 -6.464,-1.016c-2.257,-0.334 -4.513,-0.665 -6.777,-0.947c-1.663,-0.208 -3.657,0.122 -4.772,-1.358c-1.132,-1.503 -2.211,-3.027 -3.401,-4.491c-0.831,-1.023 -1.682,-2.028 -2.52,-3.045c-0.843,-1.029 -0.977,-2.092 -1.626,-3.182" class="land ae"/>
  </g>
  <g transform="matrix(9.6664741,0,0,8.5400129,-14277.631,-4491.4718) " fill="#b9b9b9" stroke="#ffffff" stroke-width="0.3" stroke-miterlimit="3.974468" id="om" class="land coast om">
   <path id="path4692" d="m1661.3854,637.495396c0.671,-0.595 0.903,-1.389 1.225,-2.19c0.183,-0.241 0.397,-0.446 0.646,-0.618c0.273,-0.321 -0.424,-1.322 -0.501,-1.657c-0.371,1.562 -2.003,2.723 -1.37,4.465"/>
   <path fill="#b9b9b9" stroke="#ffffff" stroke-width="0.5" stroke-miterlimit="3.974468" id="path4696" d="m1638.0564,586.446396c0.207,-0.579 0.47,-1.13 0.789,-1.655c0.68,0.76 1.334,-0.274 1.011,-0.937c0.584,0.316 1.757,2.303 0.29,1.944c0.943,0.655 0.254,4.669 -0.787,4.484c-1.414,-0.25 0.501,-3.744 -1.303,-3.836" class="land om"/>
   <path fill="#b9b9b9" stroke="#ffffff" stroke-width="0.5" stroke-miterlimit="3.974468" id="path4786" d="m1612.3554,647.574396c5.873,-2.343 11.786,-4.586 17.68,-6.876c2.209,-0.858 4.481,-0.893 4.768,-3.501c0.365,-3.334 1.368,-6.701 2.057,-9.984c0.471,-2.244 1.776,-5.035 0.486,-7.159c-0.929,-1.528 -2.813,-2.834 -3.399,-4.522c-0.737,-2.122 3.27,-9.425 1.299,-10.581c0.885,-1.054 2.622,-0.142 3.39,-1.151c0.843,-1.107 -0.513,-0.738 -0.79,-1.296c-0.736,-1.486 -1.324,-4.749 -0.333,-6.256c0.462,-0.704 1.403,0.378 1.257,0.935c-0.459,1.737 1.295,-0.146 1.573,-0.41c0.858,-0.818 0.85,-0.68 1.384,0.474c0.888,1.918 2.05,3.731 3.465,5.303c2.237,2.485 5.367,3.378 8.553,4.018c1.491,0.299 2.758,0.886 4.276,1.056c2.03,0.228 3.14,2.7 4.302,4.08c0.938,1.113 1.575,2.457 2.51,3.522c0.973,1.109 1.487,1.155 2.772,1.668c3.013,1.204 -0.395,5.48 -0.995,7.247c-1.134,3.338 -4.71,5.08 -5.679,8.656c-0.229,0.844 -0.54,3.285 -1.878,2.883c-1.059,-0.317 -0.853,-2.337 -2.207,-1.496c-1.615,0.978 -1.527,4.493 -1.943,5.938c-0.545,1.889 0.071,3.353 0.57,5.183c0.407,1.496 0.663,2.627 -1.154,2.682c-2.92,0.087 -6.132,0.948 -6.851,4.096c-0.282,1.237 -0.507,2.597 -1.284,3.642c-0.967,1.301 -2.894,1.23 -4.423,1.345c-1.852,0.138 -2.594,0.439 -3.681,1.898c-1.053,1.412 -0.369,1.681 -0.457,3.294c-0.07,1.283 -1.381,2.214 -2.414,2.717c-0.498,0.241 -0.999,0.565 -1.508,0.164c-0.879,-0.693 -1.604,-0.504 -2.695,-0.504c-3.159,0 -5.563,2.93 -8.748,2.84c-2.063,-0.059 -1.497,-4.974 -3.712,-5.216c0.939,-0.98 -1.353,-4.426 -1.819,-5.289c-1.63,-3.012 -3.304,-6.144 -4.372,-9.4" class="land om"/>
  </g>
  <g transform="matrix(9.6664741,0,0,8.5400129,-14277.631,-4491.4718) " fill="#b9b9b9" stroke="#ffffff" stroke-width="0.3" stroke-miterlimit="3.974468" id="sa" class="land coast sa">
   <path id="path3234" d="m1539.1354,668.670396c-0.041,-0.811 -0.376,-1.567 -1.079,-2.017c-0.016,0.265 -0.043,0.529 -0.08,0.792c-0.938,0.037 -1.275,-0.954 -2.08,-1.224c0.78,1.298 2.789,1.272 3.239,2.449"/>
   <path fill="#b9b9b9" stroke="#ffffff" stroke-width="0.5" stroke-miterlimit="3.974468" id="path3380" d="m1543.9654,670.003396c0.097,-0.908 -0.457,-3.06 -1.274,-3.58c-0.416,-0.265 -2.431,-4.499 -2.315,-2.456c-0.187,-3.659 -2.723,-4.6 -4.741,-7.077c-0.764,-0.938 -1.842,-2.292 -2.2,-3.439c-0.463,-1.48 -1.298,-1.902 -2.056,-3.105c-0.444,-0.706 -0.066,-1.322 -0.578,-2.047c-0.365,-0.515 -0.975,-2.154 -1.216,-2.815c-0.226,-0.619 -0.363,-1.273 -0.653,-1.868c-0.267,-0.547 -0.824,-0.624 -1.092,-1.105c-0.256,-0.462 -0.005,-1.092 -0.359,-1.497c-0.359,-0.409 -0.945,-0.466 -1.334,-0.828c-0.977,-0.909 -2.108,-1.828 -2.971,-2.841c-1.047,-1.23 -2.274,-0.715 -3.455,-1.585c-1.959,-1.446 -3.262,-4.131 -4.493,-6.187c-0.717,-1.197 -0.511,-1.882 -0.571,-3.145c-0.066,-1.368 -1.056,-2.5 -1.158,-3.883c-0.134,-1.815 0.617,-3.62 0.256,-5.428c-0.165,-0.824 -0.615,-1.521 -1.057,-2.216c-0.232,-0.366 -1.639,-2.181 -0.051,-0.94c-0.349,-0.912 -1.142,-0.922 -1.348,-1.921c-0.185,-0.893 -0.623,-1.87 -0.972,-2.713c-0.966,-2.335 -2.851,-3.926 -4.618,-5.606c-1.289,-1.224 -2.566,-1.417 -4.138,-1.847c-0.67,-0.183 -0.99,-1.458 -1.187,-2.002c-0.422,-1.166 -1.238,-1.966 -1.969,-2.938c2.53,-0.922 -0.994,-5.075 -1.82,-6.08c-0.557,-0.675 -2.12,-1.905 -2.053,-2.796c0.117,-1.535 -1.86,-2.422 -2.525,-3.803c-2.016,-4.19 -5.198,-7.671 -7.432,-11.782c-0.681,-1.252 -1.441,-3.183 -2.942,-3.606c-0.682,-0.192 -3.364,-0.638 -3.417,0.621c-0.897,-0.82 0.553,-2.975 0.805,-3.836c0.528,-1.805 0.174,-3.673 0.401,-5.505c0.296,-2.383 0.731,-2.153 2.792,-1.865c1.723,0.241 4.01,1.258 5.729,1.028c3.464,-0.466 3.361,-5.71 6.57,-6.216c1.203,-0.19 4.1559,0.11407 4.027,-1.508c-0.2941,-3.69942 1.3153,-2.58881 3.5546,-3.34406l-4.0486,-4.04394c-1.545,-1.447 -2.7058,-2.99861 -4.1048,-4.58261c0,0 10.1538,-3.04739 11.9968,-3.76339c1.539,-0.598 2.731,-1.926 4.452,-1.57c2.694,0.558 5.511,0.674 8.052,1.809c9.609,4.295 17.514,11.15 25.805,17.459c1.756,1.337 3.465,2.664 5.104,4.137c1.867,1.677 3.324,1.657 5.784,1.895c2.836,0.274 5.665,0.611 8.502,0.873c1.041,0.097 1.555,-0.434 2.685,-0.19c1.527,0.329 3.111,0.515 4.666,0.656c1.648,0.148 1.778,2.064 2.304,3.277c0.779,1.802 3.404,0.664 4.894,0.795c1.541,0.136 1.742,0.971 2.246,2.232c0.545,1.365 3.255,3.104 2.834,4.635c-0.139,-0.241 -0.309,-0.457 -0.511,-0.647c-0.461,1.097 0.645,0.972 0.511,1.94c0.019,0.015 4.632,0.442 2.87,1.797c0.676,0.214 2.111,3.675 2.8,1.725c-0.46,1.736 3.706,3.686 4.67,4.741c-0.514,-0.154 -0.897,-0.466 -1.15,-0.934c0.024,1.914 1.184,1.942 1.596,3.478c0.241,0.9 0.145,2.799 -1.165,1.624c0.119,1.021 -0.211,1.224 0.717,1.412c0.143,0.028 1.359,2.665 1.443,2.971c-0.27,-0.233 -0.533,-0.473 -0.791,-0.719c0.797,1.169 2.22,1.826 2.85,3.12c0.639,1.308 0.833,2.508 1.601,3.779c0.59,0.978 1.443,2.654 2.665,2.954c0.559,0.137 2.587,-0.393 2.295,0.71c0.214,-0.56 0.699,-0.765 1.221,-0.432c-0.683,0.834 -1.587,3.14 0.72,2.551c-0.152,0.039 1.467,2.509 1.595,2.692c1.018,1.442 2.147,2.804 3.232,4.195c1.302,1.669 2.889,4.532 5.127,4.928c3.429,0.605 6.943,0.651 10.39,1.316c1.009,0.194 7.405,1.858 7.826,0.34c1.242,1.781 2.485,3.563 3.728,5.344c0.996,1.428 -0.372,4.458 -0.687,5.956c-0.458,2.188 -0.917,4.376 -1.376,6.564c-0.271,1.293 -0.395,5.272 -1.658,5.856c-3.19,1.475 -6.703,2.5 -9.986,3.777c-1.918,0.746 -3.837,1.492 -5.756,2.237c-0.959,0.373 -1.918,0.746 -2.877,1.119c-0.659,0.257 -3.089,0.776 -2.658,1.478c-4.949,0.69 -9.901,1.355 -14.856,1.998c-2.272,0.295 -4.671,0.392 -6.846,1.161c-1.926,0.682 -3.648,1.813 -5.409,2.825c-2.651,1.524 -5.353,5.678 -5.912,8.645c-0.247,1.305 -1.665,2.592 -3.06,2.598c-1.458,0.006 -1.754,-1.936 -2.852,-2.541c-1.075,-0.592 -3.053,0.254 -4.244,0.125c-1.808,-0.196 -3.955,-0.212 -5.681,-0.804c-2.026,-0.695 -3.418,-0.857 -5.576,-0.857c-1.891,0 -3.538,1.206 -5.42,1.265c-1.441,0.045 -2.657,-1.807 -3.896,-1.489c-1.633,0.419 -1.775,2.633 -1.867,3.986c-0.09,1.335 1.297,2.403 -0.057,3.076c-1.36,0.677 -0.742,2.792 -2.844,2.813c-0.013,-0.179 -0.023,-0.355 -0.033,-0.53" class="land sa"/>
   <path id="path5480" d="m1536.6854,664.854396c0.531,0.132 0.65,0.3 0.36,0.504c-0.12,-0.168 -0.24,-0.336 -0.36,-0.504"/>
   <path id="path5482" d="m1537.0454,665.358396c0.219,0.31 0.265,0.646 0.14,1.008c-0.264,-0.073 -0.503,-0.193 -0.72,-0.359c0.193,-0.217 0.387,-0.433 0.58,-0.649"/>
   <path id="path5488" d="m1588.3064,575.718396c0.355,-0.539 0.91,-0.395 1.3,0c-0.434,0.083 -0.867,0.083 -1.3,0"/>
  </g>
  <g transform="matrix(9.6664741,0,0,8.5400129,-13988.587,-4106.5352) " id="kw">
   <g fill="#b9b9b9" stroke="#ffffff" stroke-width="0.5" stroke-miterlimit="3.974468" id="kw-" class="land kw">
    <path id="path5440" d="m1546.52368,507.531925c0.141,0.313 -1.702,3.358 0.58,3.132c1.975,-0.196 -0.036,-2.463 -0.58,-3.132"/>
    <path id="path5486" d="m1535.22368,515.090925c2.511,-1.917 1.986,-7.654 5.057,-8.277c1.469,-0.298 3.998,-0.46 4.831,1.042c0.276,0.498 1.568,2.708 1.122,3.276c-0.952,-1.335 -2.306,0.929 -2.81,1.584c1.462,-0.194 3.089,0.374 3.45,1.954c0.44,1.921 1.883,3.305 2.53,5.245c-1.273,0 -4.45,0.663 -5.513,-0.038c-0.966,-0.638 -0.895,-2.186 -1.439,-3.1c-1.188,-1.993 -5.29,-1.468 -7.228,-1.686"/>
   </g>
   <path opacity="0" fill="#b9b9b9" stroke="#000000" stroke-width="0.5" stroke-miterlimit="3.974468" id="kw." d="m1542.7124,518.511356c7.7226,0 7.7226,-12.02611 0,-12.02611c-7.7281,0 -7.7281,12.02611 0,12.02611" class="circle kw"/>
  </g>
  <g transform="matrix(9.6664741,0,0,8.5400129,-13988.587,-4106.5352) " id="qa">
   <path fill="#b9b9b9" stroke="#ffffff" stroke-width="0.5" stroke-miterlimit="3.974468" id="qa-" d="m1569.2037,548.139946c-0.044,-0.39 -0.608,-2.786 0.5,-1.656c-0.063,-0.388 -0.317,-2.542 0.37,-0.72c0.055,-1.816 0.702,-6.609 3.204,-3.966c0.627,0.663 1.831,1.128 1.837,2.168c0.005,0.726 -0.354,1.186 -0.519,1.849c-0.144,0.574 0.207,1.32 0.263,1.893c0.055,0.573 0.664,0.584 0.824,1.08c0.264,0.809 0.068,1.543 -0.259,2.29c-0.566,1.293 -0.38,2.237 -1.798,2.662c-1.178,0.354 -2.239,1.291 -3.028,-0.439c-0.72,-1.578 -1.02,-3.477 -1.394,-5.161" class="land qa"/>
   <path opacity="0" fill="#b9b9b9" stroke="#000000" stroke-width="0.5" stroke-miterlimit="3.974468" id="qa." d="m1571.9084,555.353896c7.7226,0 7.7226,-12.02611 0,-12.02611c-7.7282,0 -7.7282,12.02611 0,12.02611" class="circle qa"/>
  </g>
  <g transform="matrix(9.6664741,0,0,8.5400129,-13988.587,-4106.5352) " id="bh">
   <path fill="#b9b9b9" stroke="#ffffff" stroke-width="0.3" stroke-miterlimit="3.974468" id="bh-" d="m1566.3247,540.435946c0.229,0.479 0.326,0.982 0.289,1.512c-0.134,0.691 0.704,1.188 0.86,1.8c0.296,-0.76 0.331,-4.892 -1.149,-3.312" class="land coast bh"/>
   <path opacity="0" fill="#b9b9b9" stroke="#000000" stroke-width="0.5" stroke-miterlimit="3.974468" id="bh." d="m1565.0068,544.817656c7.7226,0 7.7226,-12.02611 0,-12.02611c-7.7282,0 -7.7282,12.02611 0,12.02611" class="circle bh"/>
  </g>
  <text font-size="72px" font-style="normal" font-weight="normal" fill="#000000" stroke-width="1px" font-family="Bitstream Vera Sans" id="text7193" y="676.225357" x="536.387377" xml:space="preserve">
   <tspan y="676.225357" x="536.387377" id="tspan7195">Saudi Arabia</tspan>
  </text>
  <text transform="matrix(0.9285001,-0.3713323,0.3713323,0.9285001,0,0) " font-size="72px" font-style="normal" font-weight="normal" fill="#000000" stroke-width="1px" font-family="Bitstream Vera Sans" id="text7197" y="1558.585422" x="285.099633" xml:space="preserve">
   <tspan y="1558.585422" x="285.099633" id="tspan7199">Yemen</tspan>
  </text>
  <text transform="matrix(0.8760992,-0.4821309,0.4821309,0.8760992,0,0) " font-size="72px" font-style="normal" font-weight="normal" fill="#000000" stroke-width="1px" font-family="Bitstream Vera Sans" id="text7201" y="1599.018954" x="933.2288" xml:space="preserve">
   <tspan y="1599.018954" x="933.2288" id="tspan7203">Oman</tspan>
  </text>
  <text font-size="72px" font-style="normal" font-weight="normal" fill="#000000" stroke-width="1px" font-family="Bitstream Vera Sans" id="text7205" y="88.55277" x="1688.398077" xml:space="preserve">
   <tspan text-anchor="middle" y="88.55277" x="1688.398077" id="tspan7207">United</tspan>
   <tspan text-anchor="middle" id="tspan7237" y="178.552767" x="1688.398077">Arab</tspan>
   <tspan text-anchor="middle" id="tspan7239" y="268.552767" x="1688.398077">Emirates</tspan>
  </text>
  <text font-size="72px" font-style="normal" font-weight="normal" fill="#000000" stroke-width="1px" font-family="Bitstream Vera Sans" id="text7209" y="368.269487" x="1277.569377" xml:space="preserve">
   <tspan y="368.269487" x="1277.569377" id="tspan7211">Qatar</tspan>
  </text>
  <text font-size="72px" font-style="normal" font-weight="normal" fill="#000000" stroke-width="1px" font-family="Bitstream Vera Sans" id="text7237" y="268.218896" x="1181.006877" xml:space="preserve">
   <tspan y="268.218896" x="1181.006877" id="tspan7229">Bahrain</tspan>
  </text>
  <text font-size="72px" font-style="normal" font-weight="normal" fill="#000000" stroke-width="1px" font-family="Bitstream Vera Sans" id="text7213" y="128.168305" x="1084.444377" xml:space="preserve">
   <tspan y="128.168305" x="1084.444377" id="tspan7215">Kuwait</tspan>
  </text>
  <path fill="none" fill-rule="evenodd" stroke="#000000" stroke-width="13.282788" marker-end="url(#Arrow1Mend)" stroke-miterlimit="4" id="path8410" d="m1641.513277,301.842177l-153.7962,353.5104"/>
  <path fill="none" fill-rule="evenodd" stroke="#000000" stroke-width="9.942936" marker-end="url(#Arrow1Mend)" stroke-miterlimit="4" id="path11327" d="m1372.785277,388.978777l-157.0839,193.93975"/>
  <path fill="none" fill-rule="evenodd" stroke="#000000" stroke-width="10.65461" marker-end="url(#Arrow1Mend)" stroke-miterlimit="4" id="path11329" d="m1187.871077,169.918477l-244.1214,122.05265"/>
  <path fill="none" fill-rule="evenodd" stroke="#000000" stroke-width="10.65461" marker-end="url(#Arrow1Mend)" stroke-miterlimit="4" id="path11337" d="m1221.050377,284.058627l-57.5,199.21385"/>
 </g>
</svg>